<svg xmlns="http://www.w3.org/2000/svg" width="32" height="32" viewBox="0 0 32 32">
  <rect x="2" y="4" width="28" height="26" rx="3" fill="#4f46e5" />
  <rect x="2" y="4" width="28" height="8" rx="3" fill="#6366f1" />
  <rect x="8" y="4" width="2" height="4" rx="1" fill="#fff" y="1" />
  <rect x="22" y="4" width="2" height="4" rx="1" fill="#fff" y="1" />
  <line x1="2" y1="12" x2="30" y2="12" stroke="#3730a3" stroke-width="0.5" />
  <line x1="2" y1="18" x2="30" y2="18" stroke="#3730a3" stroke-width="0.5" />
  <line x1="2" y1="24" x2="30" y2="24" stroke="#3730a3" stroke-width="0.5" />
  <line x1="11" y1="12" x2="11" y2="30" stroke="#3730a3" stroke-width="0.5" />
  <line x1="20.5" y1="12" x2="20.5" y2="30" stroke="#3730a3" stroke-width="0.5" />
  <rect x="5" y="14" width="4" height="2.5" rx="0.5" fill="#a5b4fc" />
  <rect x="14" y="20" width="4" height="2.5" rx="0.5" fill="#a5b4fc" />
  <rect x="23" y="14" width="4" height="2.5" rx="0.5" fill="#a5b4fc" />
  <rect x="5" y="26" width="4" height="2.5" rx="0.5" fill="#a5b4fc" />
</svg>
